<svg height="32" viewBox="0 0 32 32" width="32" xmlns="http://www.w3.org/2000/svg"><path d="m16 24v-2a3.2965 3.2965 0 0 0 3-3h2a5.2668 5.2668 0 0 1 -5 5z"/><path d="m16 28a9.0114 9.0114 0 0 1 -9-9 9.9843 9.9843 0 0 1 1.4941-4.9554l6.6587-10.6079a1.04 1.04 0 0 1 1.6944 0l6.6289 10.5564a10.0633 10.0633 0 0 1 1.5239 5.0069 9.0114 9.0114 0 0 1 -9 9zm0-22.1517-5.7817 9.2079a7.9771 7.9771 0 0 0 -1.2183 3.9438 7 7 0 0 0 14 0 8.0615 8.0615 0 0 0 -1.248-3.9953z"/><path d="m0 0h32v32h-32z" fill="none"/></svg>